<mxfile host="app.diagrams.net" modified="2024-06-01T05:33:22.917Z" agent="Mozilla/5.0 (Windows NT 10.0; Win64; x64) AppleWebKit/537.36 (KHTML, like Gecko) Chrome/125.0.0.0 Safari/537.36" version="24.4.13" etag="IJALXjHaAkrn32ieWn8f" type="github">
  <diagram name="Trang-1" id="XrT5p94j7rRddCmY9wOV">
    <mxGraphModel>
      <root>
        <mxCell id="0" />
        <mxCell id="1" parent="0" />
      </root>
    </mxGraphModel>
  </diagram>
</mxfile>
